<svg xmlns="http://www.w3.org/2000/svg" viewBox="0 0 603.39 247.7" role="img" aria-label="PACE Institute of Management">
  <defs><linearGradient id="g" x1="254.63" y1="131.91" x2="169.8" y2="131.91" gradientUnits="userSpaceOnUse"><stop stop-color="#00c6d6"/><stop offset="1" stop-color="#027cf5"/></linearGradient></defs>
  <path fill="#0047af" d="M429.03 135.18l26.3 26.29c-15.98 15.97-38.06 25.86-62.45 25.86-48.77 0-88.31-39.54-88.31-88.31s39.54-88.3 88.32-88.3c24.39 0 46.46 9.89 62.45 25.86l-26.3 26.3c-9.24-9.25-22.02-14.98-36.15-14.98-28.24 0-51.13 22.89-51.13 51.13s22.89 51.13 51.13 51.13c14.12 0 26.9-5.73 36.15-14.97zM504.39 47.91v34.95h82.2v31.4h-82.2v34.84h90.06v34.52H469.89V13.41h124.56v34.5z"/>
  <path fill="url(#g)" d="m178.35 149.35 40.55-34.88 40.54 34.88z"/>
  <path fill="#0047af" d="M139.39 47.93c-10.13-20.46-31.23-34.52-55.6-34.52H9.68v170.21h34.51v-46.16h39.59c14.4 0 27.66-4.91 38.18-13.14 14.51-11.36 23.84-29.03 23.84-48.89 0-9.87-2.31-19.21-6.42-27.5zM83.78 102.96H44.19V47.9h39.59c.36 0 .71 0 1.07.03 14.71.55 26.47 12.65 26.47 27.5s-11.75 26.96-26.47 27.51c-.36.02-.71.03-1.07.03zM313.76 183.61h-39.24L218.86 57.78 163.2 183.61h-39.25l75.28-170.2h39.24z"/>
  <text x="9.7" y="238" fill="#1f3446" font-family="Arial, sans-serif" font-size="37" letter-spacing="3.4">INSTITUTE OF MANAGEMENT</text>
</svg>
